<?xml version="1.0" encoding="UTF-8" standalone="no"?>
<!-- Generator: Adobe Illustrator 19.2.1, SVG Export Plug-In . SVG Version: 6.00 Build 0)  -->

<svg
   xmlns:dc="http://purl.org/dc/elements/1.1/"
   xmlns:cc="http://creativecommons.org/ns#"
   xmlns:rdf="http://www.w3.org/1999/02/22-rdf-syntax-ns#"
   xmlns:svg="http://www.w3.org/2000/svg"
   xmlns="http://www.w3.org/2000/svg"
   xmlns:sodipodi="http://sodipodi.sourceforge.net/DTD/sodipodi-0.dtd"
   xmlns:inkscape="http://www.inkscape.org/namespaces/inkscape"
   version="1.1"
   id="Ebene_1"
   x="0px"
   y="0px"
   viewBox="0 0 600 600"
   xml:space="preserve"
   inkscape:version="0.91 r13725"
   sodipodi:docname="pya_logo_rgb_sq.svg"
   width="600"
   height="600"
   inkscape:export-filename="C:\Users\Michaela\Google Drive\Python Academy\Logo\new\pya_logo_rbg_sq.png"
   inkscape:export-xdpi="600"
   inkscape:export-ydpi="600"><metadata
     id="metadata19"><rdf:RDF><cc:Work
         rdf:about=""><dc:format>image/svg+xml</dc:format><dc:type
           rdf:resource="http://purl.org/dc/dcmitype/StillImage" /><dc:title></dc:title></cc:Work></rdf:RDF></metadata><defs
     id="defs17" /><sodipodi:namedview
     pagecolor="#ffffff"
     bordercolor="#666666"
     borderopacity="1"
     objecttolerance="10"
     gridtolerance="10"
     guidetolerance="10"
     inkscape:pageopacity="0"
     inkscape:pageshadow="2"
     inkscape:window-width="1301"
     inkscape:window-height="745"
     id="namedview15"
     showgrid="false"
     inkscape:zoom="0.61728395"
     inkscape:cx="-60.75"
     inkscape:cy="307.9"
     inkscape:window-x="57"
     inkscape:window-y="-8"
     inkscape:window-maximized="1"
     inkscape:current-layer="Ebene_1" /><style
     type="text/css"
     id="style3">
	.st0{fill:#BFB25F;}
	.st1{fill:#2F9A41;}
</style><g
     id="g4139"
     transform="matrix(0.89887707,0,0,0.89887707,46,-123.33635)"><path
       style="fill:#bfb25f"
       inkscape:connector-curvature="0"
       id="path5"
       d="m 78.8,568.1 c -2.4,0 -3.3,-0.5 -3.3,-0.5 0,1.4 0.3,3.4 2.8,3.4 l 4.7,0 0,19.4 c 0,1.9 3.7,1.9 3.7,1.9 l 0,-21.3 4.8,0 c 2.4,0 2.8,-2 2.8,-3.4 0,0 -0.9,0.5 -3.3,0.5 l -12.2,0 z m 27.5,6.3 c -1.9,0 -3.2,0.7 -4.7,0.7 -0.7,0 -1.4,-0.2 -2.3,-0.6 l 0,15.6 c 0,2 3.5,2 3.5,2 l 0,-14.3 c 0,0 1.4,-0.5 2.9,-0.5 2,0 3.6,0.9 3.6,2.9 0.5,-0.6 1.2,-1.6 1.2,-2.9 0,-2 -1.9,-2.9 -4.2,-2.9 m 17.4,0 c -3,0 -6.4,1 -6.4,3.6 0,0.8 0.3,1.8 1.1,2.9 0,-2.6 2.3,-3.7 5.3,-3.7 2.9,0 3.6,1.2 3.6,2.6 -1.3,2.9 -10.5,0.9 -10.5,7.3 0,3.8 3.3,5.1 6.5,5.1 1.9,0 3.4,-0.6 5.1,-0.6 0.8,0 1.6,0.1 2.4,0.5 l 0,-12.1 c 0,-3.5 -2.5,-5.6 -7.1,-5.6 m 3.6,14.5 c 0,0 -1.4,0.8 -3.5,0.8 -2.4,0 -3.5,-1 -3.5,-2.5 0,-3.5 6.4,-2.3 7.1,-4.3 l 0,6 z m 13,-14.3 0,15.6 c 0,1.9 3.5,1.9 3.5,1.9 l 0,-15.6 c 0.1,-1.9 -3.3,-1.9 -3.5,-1.9 m 1,-2.9 2.5,0 0,-2.5 c 0,-0.4 -0.6,-0.9 -1,-0.9 l -2.5,0 0,2.6 c 0,0.5 0.5,0.8 1,0.8 m 19.9,2.7 c -1.9,0 -3.4,0.7 -5,0.7 -1.2,0 -2.2,-0.4 -2.6,-0.6 l 0,15.7 c 0,1.9 3.5,1.9 3.5,1.9 l 0,-14.4 c 0,0 1.5,-0.6 3.6,-0.6 2.7,0 3.7,1.1 3.7,3 l 0,10 c 0,1.9 3.5,1.9 3.5,1.9 l 0,-12.4 c 0.1,-4.1 -3.4,-5.2 -6.7,-5.2 m 16.5,0.2 0,15.6 c 0,1.9 3.5,1.9 3.5,1.9 l 0,-15.6 c 0.1,-1.9 -3.3,-1.9 -3.5,-1.9 m 1,-2.9 2.5,0 0,-2.5 c 0,-0.4 -0.6,-0.9 -1,-0.9 l -2.5,0 0,2.6 c 0,0.5 0.5,0.8 1,0.8 m 19.9,2.7 c -1.9,0 -3.4,0.7 -5,0.7 -1.2,0 -2.2,-0.4 -2.6,-0.6 l 0,15.7 c 0,1.9 3.5,1.9 3.5,1.9 l 0,-14.4 c 0,0 1.5,-0.6 3.6,-0.6 2.7,0 3.7,1.1 3.7,3 l 0,10 c 0,1.9 3.5,1.9 3.5,1.9 l 0,-12.4 c 0.1,-4.1 -3.4,-5.2 -6.7,-5.2 m 23.6,15.1 -1.1,0 c -2.6,0 -4,-0.2 -4,-1.9 0,-0.4 0.1,-1 0.2,-1.6 0,0 1.5,1 4.3,1 4.5,0 7,-2.1 7,-5.7 l 0,-6.9 c -1,0.4 -1.9,0.6 -2.6,0.6 -1.6,0 -3.2,-0.7 -5,-0.7 -3.2,0 -6.4,1.4 -6.4,5.2 l 0,1.7 c 0,1.3 0.4,2.8 1.2,3.6 -1,1.1 -1.7,2.1 -1.7,3.5 0,3.5 3,3.8 6.3,3.8 l 1.7,0 c 2.2,0 3.7,0.2 3.7,2.1 0,1.7 -1,3 -4.3,3 -3.3,0 -5.8,-1 -5.9,-3.5 -0.7,1 -1,1.8 -1,2.6 0,2.3 2.9,3.6 7.1,3.6 5.3,0 7.6,-2.4 7.6,-5.8 0,-4.5 -3.8,-4.6 -7.1,-4.6 m -4.1,-9.4 c 0,-2.2 0.8,-3.1 3.5,-3.1 2,0 3.4,0.6 3.5,0.7 l 0,3.1 c 0,2.2 -0.7,3.5 -3.5,3.5 -2.8,0 -3.5,-1.3 -3.5,-3.5 l 0,-0.7 z m 43,9.2 c -3.5,0 -5,-1.7 -5,-4 0,-2.3 1.1,-3.7 3.7,-4 l 0.6,0 0,1.3 c 0,0.7 0,3.1 3.9,3.5 0,0 -0.6,-1.2 -0.6,-2.7 l 0,-2.2 1.8,0 c 2.1,0 2.1,-2.9 2.1,-2.9 l -3.9,0 0,-2.3 c 0,-1.9 -3.3,-1.9 -3.3,-1.9 l 0,4.2 c -2.9,-0.1 -3.9,-1.3 -3.9,-3.9 0,-2.2 1.5,-3.8 4.7,-3.8 3.3,0 6.7,1 6.7,4.3 0.8,-1 1.2,-2 1.2,-2.9 0,-2.7 -3.5,-4.4 -7.9,-4.4 -4.8,0 -8.3,2.4 -8.3,6.2 l 0,0.8 c 0,2.2 1,4.3 3.2,4.8 -2.4,0.7 -3.5,3 -3.5,5.2 l 0,1 c 0,3.9 3.5,6.5 8.7,6.5 4.7,0 8.2,-1.6 8.2,-4.3 0,-0.8 -0.3,-1.8 -1.1,-2.9 -0.3,3.4 -3.7,4.4 -7.3,4.4 m 41.6,0 c -3.5,0 -6,-1.3 -6,-5.5 l 0,-7.6 c 0,-4.2 2.5,-5.5 6,-5.5 3.6,0 7.8,1.1 8.2,4.1 0.5,-0.9 0.8,-1.7 0.8,-2.4 0,-3.4 -4.5,-4.7 -9,-4.7 -5.1,0 -9.7,2.1 -9.7,8 l 0,8.6 c 0,5.9 4.5,8 9.7,8 4.3,0 9.1,-1.1 9.1,-4.4 0,-0.8 -0.2,-1.7 -0.8,-2.7 -0.5,3.2 -4.7,4.1 -8.3,4.1 m 25.6,-14.9 c -5.2,0 -7.7,2.1 -7.7,5.7 l 0,6.6 c 0,3.5 2.5,5.7 7.7,5.7 5.3,0 7.7,-2.1 7.7,-5.7 l 0,-6.7 c 0,-3.5 -2.4,-5.6 -7.7,-5.6 m 4.2,11.7 c 0,2.2 -0.7,3.5 -4.2,3.5 -3.4,0 -4.1,-1.3 -4.1,-3.5 l 0,-5.6 c 0,-2.2 0.7,-3.5 4.1,-3.5 3.5,0 4.2,1.3 4.2,3.5 l 0,5.6 z M 353,574.4 c -1.8,0 -3.4,0.7 -5,0.7 -1.2,0 -2.2,-0.4 -2.6,-0.6 l 0,15.7 c 0,1.9 3.5,1.9 3.5,1.9 l 0,-14.4 c 0,0 1.5,-0.6 3.6,-0.6 2.7,0 3.7,1.1 3.7,3 l 0,10 c 0,1.9 3.5,1.9 3.5,1.9 l 0,-12.4 c 0.1,-4.1 -3.4,-5.2 -6.7,-5.2 m 19.1,5.3 c 0,-1.7 1,-2.4 3.6,-2.4 3.1,0 5.2,1.1 5.2,3.3 0.8,-1.1 1.1,-2.1 1.1,-2.9 0,-2.3 -2.7,-3.3 -6.5,-3.3 -4.6,0 -7.1,1.8 -7.1,5.4 0,7.2 10.8,2.8 10.8,7 0,1.7 -1.6,2.6 -3.7,2.6 -2.9,0 -5.5,-0.9 -5.5,-3.6 -1,1.1 -1.3,2.1 -1.3,2.9 0,2.4 2.9,3.5 6.9,3.5 4.9,0 7.3,-2.1 7.3,-5.3 0,-7.9 -10.8,-3.7 -10.8,-7.2 m 30.4,-5.1 0,14.4 c 0,0 -1.6,0.6 -3.6,0.6 -2.7,0 -3.6,-1.1 -3.6,-3 l 0,-10 c 0,-1.9 -3.5,-1.9 -3.5,-1.9 l 0,12.3 c 0,4.2 3.4,5.3 6.7,5.3 1.9,0 3.4,-0.7 5,-0.7 1.2,0 2.2,0.4 2.6,0.6 l 0,-15.7 c -0.1,-1.9 -3.6,-1.9 -3.6,-1.9 m 16.6,11.4 0,-17.7 c 0,-1.9 -3.3,-1.9 -3.5,-1.9 l 0,20.7 c 0,2.7 1.1,5 3.5,5 0.7,0 1.6,-0.2 2.4,-1.1 -2.1,0 -2.4,-3.1 -2.4,-5 m 16.8,3.4 c -2.6,0 -3.3,-1.5 -3.3,-3.8 l 0,-7.4 4.8,0 c 2.1,0 2.1,-2.8 2.1,-2.8 l -6.9,0 0,-1.3 c 0,-2.9 -2.8,-3 -3.5,-3 l 0,15.4 c 0,3.6 2.4,5.7 6.4,5.7 3.4,0 5.8,-1.4 5.8,-3.6 0,-0.9 -0.4,-1.7 -1.2,-2.7 0,2.5 -2,3.5 -4.2,3.5 m 13,-14.8 0,15.6 c 0,1.9 3.5,1.9 3.5,1.9 l 0,-15.6 c 0.1,-1.9 -3.3,-1.9 -3.5,-1.9 m 1,-2.9 2.5,0 0,-2.5 c 0,-0.4 -0.6,-0.9 -1,-0.9 l -2.5,0 0,2.6 c 0,0.5 0.5,0.8 1,0.8 m 19.9,2.7 c -1.9,0 -3.4,0.7 -5,0.7 -1.2,0 -2.2,-0.4 -2.6,-0.6 l 0,15.7 c 0,1.9 3.5,1.9 3.5,1.9 l 0,-14.4 c 0,0 1.5,-0.6 3.6,-0.6 2.7,0 3.7,1.1 3.7,3 l 0,10 c 0,1.9 3.5,1.9 3.5,1.9 l 0,-12.4 c 0,-4.1 -3.4,-5.2 -6.7,-5.2 m 23.6,15.1 -1.1,0 c -2.6,0 -4,-0.2 -4,-1.9 0,-0.4 0.1,-1 0.2,-1.6 0,0 1.5,1 4.3,1 4.5,0 7,-2.1 7,-5.7 l 0,-6.9 c -1,0.4 -1.9,0.6 -2.6,0.6 -1.6,0 -3.2,-0.7 -5,-0.7 -3.2,0 -6.4,1.4 -6.4,5.2 l 0,1.7 c 0,1.3 0.4,2.8 1.2,3.6 -1,1.1 -1.7,2.1 -1.7,3.5 0,3.5 3,3.8 6.3,3.8 l 1.7,0 c 2.2,0 3.7,0.2 3.7,2.1 0,1.7 -1,3 -4.3,3 -3.3,0 -5.8,-1 -5.9,-3.5 -0.7,1 -1,1.8 -1,2.6 0,2.3 2.9,3.6 7.1,3.6 5.2,0 7.6,-2.4 7.6,-5.8 0,-4.5 -3.8,-4.6 -7.1,-4.6 m -4.1,-9.4 c 0,-2.2 0.8,-3.1 3.5,-3.1 2,0 3.4,0.6 3.5,0.7 l 0,3.1 c 0,2.2 -0.7,3.5 -3.5,3.5 -2.8,0 -3.5,-1.3 -3.5,-3.5 l 0,-0.7 z"
       class="st0" /><path
       style="fill:#2f9a41"
       inkscape:connector-curvature="0"
       id="path7"
       d="m 25.2,386.1 -25.2,0 0,75.3 c 0,8.8 19.6,8.8 19.6,8.8 l 0,-26.3 5.6,0 c 19.3,0 36.4,-5.8 36.4,-28.1 l 0,-2.1 c 0,-22.8 -17.1,-27.6 -36.4,-27.6 m 0,43.8 -5.6,0 0,-29.9 5.6,0 c 9.8,0 16.8,2.3 16.8,14.7 0,13.5 -7,15.2 -16.8,15.2 m 64.3,64.4 c 0,0 -2.3,-4.1 -2.3,-9.2 0,-7.8 5.5,-12.9 12.7,-18.4 l 4.5,-3.4 c 7.1,-5.5 17,-17.6 18.8,-32.4 l 2.7,-22.7 c -0.1,0 -18.7,0 -19.9,8.4 l -2.3,16 c -1.9,13.6 -7.9,17.8 -7.9,17.8 0,0 -5.7,-3.1 -7.8,-17.8 l -2.3,-16 C 84.4,408.2 66,408.2 66,408.2 l 2.6,22.7 c 1.4,12.2 8.4,23.7 16.6,29.1 -8.9,6.6 -16.1,12.1 -16.1,22.7 0,8.7 4.4,13.9 11.4,13.9 2.7,0 5.7,-0.7 9,-2.3 m 68.2,-23.9 c 17.2,0 21.7,-7.9 21.7,-14.3 0,-4.4 -2.4,-7.9 -6.2,-11.4 0,10.2 -7,11.9 -12.6,11.9 -8.3,0 -9.9,-3.8 -9.9,-10.8 l 0,-19.5 12.1,0 c 10.5,0 10.6,-13.9 10.6,-13.9 l -22.7,0 0,-3.7 c 0,-10.2 -19.2,-8.9 -19.2,-8.9 l 0,49.2 c 0.1,13.5 9.1,21.4 26.2,21.4 m 62.4,-9.3 c 0,8.4 19.2,8.8 19.2,8.8 l 0,-41.2 c 0,-14.8 -11.6,-21.1 -24.9,-21.1 -7,0 -12.6,3.1 -12.6,3.1 0,0 0.8,-3.2 0.8,-5.5 l 0,-14.5 c 0,-10 -17.3,-9.9 -19.2,-9.9 l 0,80.4 c 0,8.8 19.2,8.8 19.2,8.8 l 0,-40.8 c 0,-5 4.7,-8 9.2,-8 4.8,0 8.2,2.5 8.2,9.1 l 0,30.8 z m 87.6,-12.1 0,-20 c 0,-13.4 -9.5,-21.5 -29.6,-21.5 -20.3,0 -29.8,8.1 -29.8,21.5 l 0,20 c 0,13.5 9.5,21.5 29.8,21.5 20.2,-0.1 29.6,-8 29.6,-21.5 m -19.1,-1.7 c 0,6.3 -1.8,9.8 -10.4,9.8 -8.8,0 -10.6,-3.5 -10.6,-9.8 l 0,-16.6 c 0,-6.3 1.8,-9.7 10.6,-9.7 8.6,0 10.4,3.4 10.4,9.7 l 0,16.6 z m 65.3,-17.8 0,31.6 c 0,8.6 19.2,8.8 19.2,8.8 l 0,-42.1 c 0,-15.9 -13.5,-20.2 -26.3,-20.2 -6,0 -11.4,2.4 -17,2.4 -7.5,0 -12.6,-2.7 -12.6,-2.7 l 0,86.9 c -2,-1 -6.2,-2.8 -11,-2.8 -13.5,0 -25.1,8 -25.1,21.1 l 0,20.5 c 0,13.6 10.3,21.2 28,21.2 4.1,0 10.6,-1.9 17.7,-1.9 3.9,0 6.8,0.1 10.2,1.9 l 0,-132 c 1.3,-0.3 5,-0.9 8.3,-0.9 6.4,0 8.6,2.8 8.6,8.2 m -36.7,111 c -1.2,0.2 -4.3,0.6 -6.8,0.6 -7.8,0 -10.2,-3.5 -10.2,-9.9 l 0,-17.1 c 0,-6.5 3.1,-9.4 7.4,-9.4 4.1,0 8.1,2.1 9.5,5.5 l 0,30.3 z m 158.1,-49.2 c -12.7,0 -19.6,4.7 -19.6,4.7 0,0 -7.2,-4.7 -18.3,-4.7 -5.8,0 -11,2.3 -16.3,2.3 -8.8,0 -13.2,-2.6 -13.2,-2.6 l 0,53.9 c 0,8.8 19.2,8.8 19.2,8.8 l 0,-47.7 c 0,0 4.8,-0.9 8.8,-0.9 6.5,0 8.7,3.5 8.7,8.2 l 0,31.6 c 0,8.3 19.2,8.8 19.2,8.8 l 0,-41.9 c 0,-4.5 4.4,-7 8.8,-7 4.9,0 8.7,2.6 8.7,10 l 0,30 c 0,8.6 19.2,8.8 19.2,8.8 l 0,-40.9 c -0.2,-14 -11.2,-21.4 -25.2,-21.4 m 71.8,9 -2.3,16 c -1.9,13.6 -7.9,17.8 -7.9,17.8 0,0 -5.7,-3.1 -7.8,-17.8 l -2.3,-16 c -1.3,-8.4 -19.8,-8.4 -19.8,-8.4 l 2.6,22.7 c 1.4,12.2 8.4,23.7 16.6,29.1 -8.9,6.6 -16.1,12.1 -16.1,22.7 0,8.7 4.5,13.9 11.4,13.9 2.6,0 5.6,-0.7 8.9,-2.3 0,0 -2.3,-4.1 -2.3,-9.2 0,-7.8 5.5,-12.9 12.7,-18.4 l 4.5,-3.4 c 7.1,-5.5 17,-17.6 18.8,-32.4 l 2.7,-22.7 c 0,-0.1 -18.6,-0.1 -19.7,8.4 m -353.9,39.9 c -8.1,0 -12,-3.1 -12,-11.6 l 0,-12.1 c 0,-10.7 6.3,-11.6 12.4,-11.6 6.4,0 13.7,4 13.7,14.1 3.8,-5.5 5.4,-10.2 5.4,-13.9 0,-11.6 -15.5,-13.8 -23.2,-13.8 -17.7,0 -27.5,8.1 -27.5,21.5 l 0,20 c 0,13.5 11.1,21.5 28.7,21.5 14.6,0 23.3,-6.6 23.3,-15.1 0,-3 -1.7,-6.6 -4.2,-10.2 -0.1,5.6 -6.8,11.2 -16.6,11.2 m 50.9,-48.9 c -7.9,0 -24.1,2.3 -24.1,13.8 0,3.5 1,7.6 5.3,13.2 0,-10.8 9.8,-13.5 18.6,-13.5 7.4,0 9.5,3.2 9.5,5.9 -5.3,7.6 -34.9,3.8 -34.9,24.6 0,14.4 12.3,18.7 25.1,18.7 6.7,0 13.1,-2.1 19.2,-2.1 3.2,0 6.6,0.3 9.8,2.1 l 0,-42.5 c -0.1,-13 -9.9,-20.2 -28.5,-20.2 m 9.6,48.7 c 0,0 -4.2,1.3 -8.3,1.3 -3.9,0 -7.8,-1.1 -7.8,-6.5 0,-7.3 13,-5.5 16.1,-10.3 l 0,15.5 z m 122.9,0.2 c -7,0 -11.4,-2.9 -11.4,-9.2 l 0,-1.8 c 0,0 3.5,1.8 9.4,1.8 19.1,0 24.2,-9.4 24.2,-19.4 0,-12.2 -7.5,-20.3 -25.2,-20.3 -17.7,0 -27.5,8.1 -27.5,21.5 l 0,20 c 0,13.5 10.5,21.5 30,21.5 14.5,0 23.7,-6.5 23.7,-14.8 0,-3.2 -1.4,-6.6 -4.1,-10.4 -0.1,5.8 -7.2,11.1 -19.1,11.1 m -11.4,-25.8 c 0,-6.3 1.8,-9.7 7.5,-9.7 5,0 7,2.7 7,6.8 0,4.9 -3.9,6.3 -8,6.3 -2.4,0 -4.8,-0.5 -6.5,-0.9 l 0,-2.5 z m -223,-10.6 c -7.5,-22.6 -21.1,-35.3 -24.3,-37.1 -3.1,1.8 -16.8,14.4 -24.3,37.1 l -10,30.4 c -2.5,7.8 -4.2,13.7 -6.8,17.5 0,0 5.8,1.9 8.9,1.9 12.1,0 14.8,-8.4 17.8,-17.1 l 1.7,-5 25.6,0 1.7,5 c 3,8.7 5.7,17.1 17.8,17.1 3.2,0 9,-1.9 9,-1.9 -2.6,-3.8 -4.4,-9.7 -7,-17.5 l -10.1,-30.4 z m -33.1,13.7 3,-10.7 c 1.7,-6.2 5.8,-17.2 5.8,-17.2 0,0 4.1,11.1 5.8,17.2 l 3,10.7 -17.6,0 z"
       class="st1" /><g
       transform="translate(0,373)"
       inkscape:export-ydpi="600"
       inkscape:export-xdpi="600"
       id="g3347"><path
         style="fill:#bfb25f"
         inkscape:connector-curvature="0"
         class="st0"
         d="m 445.8,38.6 c -1.2,-1.7 -3.2,-2.9 -5.8,-2.9 -3.9,0 -6.8,3 -6.9,6.9 0,1.8 0.5,3 1.8,4.6 l 14.8,19.3 -14.5,18.9 c -1.1,1.2 -1.9,2.9 -1.9,4.7 0,3.7 2.9,6.9 6.8,6.9 2.5,0 4.8,-1.4 6.2,-3.3 l 17.4,-22.5 c 1.2,-1.5 2.1,-3 2.1,-4.8 0,-1.8 -0.8,-3.2 -2.1,-4.8 l -17.9,-23 z"
         id="path9" /><path
         style="fill:#bfb25f"
         inkscape:connector-curvature="0"
         class="st0"
         d="M 498.3,61.5 480.5,38.6 c -1.2,-1.7 -3.3,-2.9 -5.8,-2.9 -3.9,0 -6.9,3 -6.9,6.9 0,1.7 0.6,3.2 1.7,4.6 l 14.9,19.3 -14.6,18.9 c -1,1.2 -1.8,2.9 -1.8,4.7 0,3.7 2.9,6.9 6.6,6.9 2.6,0 4.8,-1.4 6.3,-3.3 l 17.4,-22.5 c 1.2,-1.5 1.9,-3 1.9,-4.8 0,-1.8 -0.6,-3.2 -1.9,-4.9"
         id="path11" /><path
         style="fill:#bfb25f"
         inkscape:connector-curvature="0"
         class="st0"
         d="m 411.1,38.6 c -1.2,-1.7 -3.2,-2.9 -5.8,-2.9 -3.9,0 -6.8,3 -6.9,6.9 0,1.8 0.6,3 1.8,4.6 l 14.7,19.3 -14.5,18.9 c -1.1,1.2 -1.9,2.9 -1.9,4.7 0,3.7 2.9,6.9 6.8,6.9 2.5,0 4.8,-1.4 6.2,-3.3 l 17.4,-22.5 c 1.2,-1.5 2.1,-3 2.1,-4.8 0,-1.8 -0.8,-3.2 -2.1,-4.8 l -17.8,-23 z"
         id="path13" /></g></g></svg>